<svg width="1920" height="1080" viewBox="0 0 1920 1080" fill="none" xmlns="http://www.w3.org/2000/svg">
<rect width="1920" height="1080" fill="black"/>
<rect y="540" width="340" height="112" fill="white"/>
<path d="M179.094 632H190.531L195.922 604.906L196.953 599.75L198.031 604.906L203.609 632H215.047L224.141 581.281H212.188L208.438 611.188L207.781 616.109L206.891 611.281L201.406 581.281H192.688L187.203 611.422L186.312 616.25L185.703 611.422L181.906 581.281H170L179.094 632Z" fill="black"/>
<path d="M257.609 632.938C262.516 632.938 266.766 631.984 270.359 630.078C273.953 628.172 276.578 626.047 278.234 623.703L271.719 616.672C270.219 618.609 268.266 620.062 265.859 621.031C263.453 622 260.969 622.484 258.406 622.484C256.594 622.484 254.922 622.203 253.391 621.641C251.859 621.078 250.5 620.281 249.312 619.25C248.156 618.25 247.234 617.141 246.547 615.922C245.859 614.672 245.297 613.031 244.859 611V610.859H279.266V605.328C279.266 601.609 278.75 598.219 277.719 595.156C276.688 592.062 275.188 589.422 273.219 587.234C271.219 585.047 268.781 583.359 265.906 582.172C263.062 580.953 259.812 580.344 256.156 580.344C252.625 580.344 249.359 580.984 246.359 582.266C243.359 583.547 240.766 585.344 238.578 587.656C236.391 589.969 234.688 592.734 233.469 595.953C232.25 599.141 231.641 602.672 231.641 606.547V608.422C231.641 611.828 232.25 615.031 233.469 618.031C234.719 621 236.484 623.578 238.766 625.766C241.047 627.984 243.781 629.734 246.969 631.016C250.156 632.297 253.703 632.938 257.609 632.938ZM256.062 590.891C257.719 590.891 259.172 591.156 260.422 591.688C261.703 592.188 262.781 592.875 263.656 593.75C264.531 594.656 265.219 595.719 265.719 596.938C266.219 598.156 266.469 599.453 266.469 600.828V601.859H245.094C245.406 600.203 245.875 598.703 246.5 597.359C247.125 596.016 247.906 594.859 248.844 593.891C249.75 592.922 250.812 592.188 252.031 591.688C253.25 591.156 254.594 590.891 256.062 590.891Z" fill="black"/>
<path d="M336.359 607.156V606.172C336.359 603.109 336.078 600.234 335.516 597.547C334.984 594.859 334.156 592.438 333.031 590.281C332.312 588.938 331.484 587.703 330.547 586.578C329.609 585.422 328.562 584.438 327.406 583.625C325.969 582.562 324.328 581.75 322.484 581.188C320.672 580.625 318.672 580.344 316.484 580.344C314.891 580.344 313.406 580.516 312.031 580.859C310.688 581.172 309.438 581.656 308.281 582.312C307.469 582.75 306.703 583.281 305.984 583.906C305.266 584.5 304.594 585.156 303.969 585.875V560H290.938V632H302.656L303.266 626.609C303.797 627.297 304.359 627.938 304.953 628.531C305.547 629.094 306.188 629.609 306.875 630.078C308.156 631.016 309.594 631.719 311.188 632.188C312.812 632.688 314.609 632.938 316.578 632.938C318.734 632.938 320.703 632.656 322.484 632.094C324.297 631.562 325.922 630.781 327.359 629.75C328.953 628.656 330.328 627.281 331.484 625.625C332.672 623.969 333.625 622.125 334.344 620.094C335 618.25 335.5 616.25 335.844 614.094C336.188 611.906 336.359 609.594 336.359 607.156ZM323.328 606.172V607.156C323.328 608.469 323.266 609.734 323.141 610.953C323.047 612.172 322.875 613.297 322.625 614.328C322.312 615.734 321.844 617 321.219 618.125C320.625 619.219 319.844 620.109 318.875 620.797C318.188 621.297 317.375 621.688 316.438 621.969C315.5 622.25 314.453 622.391 313.297 622.391C311.953 622.391 310.75 622.234 309.688 621.922C308.656 621.609 307.75 621.156 306.969 620.562C306.312 620.094 305.734 619.547 305.234 618.922C304.766 618.266 304.344 617.547 303.969 616.766V596.562C304.25 595.969 304.562 595.422 304.906 594.922C305.25 594.391 305.625 593.922 306.031 593.516C306.875 592.672 307.891 592.031 309.078 591.594C310.266 591.156 311.641 590.938 313.203 590.938C314.359 590.938 315.391 591.078 316.297 591.359C317.203 591.609 318.016 592 318.734 592.531C319.828 593.375 320.641 594.312 321.172 595.344C321.734 596.344 322.188 597.484 322.531 598.766C322.812 599.859 323.016 601.031 323.141 602.281C323.266 603.531 323.328 604.828 323.328 606.172Z" fill="black"/>
<path d="M418.149 602.622V587.095C418.149 582.261 417.686 577.695 416.758 573.398C415.879 569.102 414.585 565.146 412.876 561.533C411.313 558.359 409.434 555.454 407.236 552.817C405.088 550.181 402.573 547.935 399.692 546.079C396.812 544.126 393.564 542.637 389.951 541.611C386.387 540.537 382.554 540 378.452 540C374.399 540 370.64 540.513 367.173 541.538C363.706 542.563 360.581 544.028 357.798 545.933C354.966 547.886 352.451 550.229 350.254 552.964C348.105 555.698 346.274 558.75 344.761 562.119C343.198 565.684 342.002 569.565 341.172 573.765C340.391 577.964 340 582.407 340 587.095V602.622C340 607.017 340.342 611.191 341.025 615.146C341.758 619.102 342.808 622.764 344.175 626.133C345.688 629.795 347.568 633.091 349.814 636.021C352.061 638.901 354.6 641.367 357.432 643.418C360.312 645.371 363.511 646.885 367.026 647.959C370.542 649.033 374.375 649.57 378.525 649.57C382.432 649.57 386.069 649.082 389.438 648.105C392.856 647.178 395.981 645.859 398.813 644.15C401.938 642.197 404.722 639.756 407.163 636.826C409.604 633.896 411.655 630.674 413.315 627.158C414.878 623.643 416.074 619.834 416.904 615.732C417.734 611.582 418.149 607.212 418.149 602.622ZM397.275 586.948V602.622C397.275 605.259 397.129 607.798 396.836 610.239C396.592 612.681 396.201 614.927 395.664 616.978C394.98 619.614 394.053 621.982 392.881 624.082C391.758 626.133 390.366 627.842 388.706 629.209C387.388 630.332 385.874 631.187 384.165 631.772C382.456 632.358 380.576 632.651 378.525 632.651C376.377 632.651 374.448 632.334 372.739 631.699C371.079 631.064 369.59 630.161 368.271 628.989C366.855 627.671 365.61 625.962 364.536 623.862C363.511 621.714 362.729 619.346 362.192 616.758C361.704 614.707 361.362 612.485 361.167 610.093C360.972 607.7 360.874 605.21 360.874 602.622V586.948C360.874 584.214 360.972 581.602 361.167 579.111C361.411 576.621 361.777 574.326 362.266 572.227C362.9 569.492 363.779 567.1 364.902 565.049C366.074 562.998 367.49 561.289 369.15 559.922C370.371 558.994 371.738 558.286 373.252 557.798C374.814 557.31 376.548 557.065 378.452 557.065C380.454 557.065 382.261 557.334 383.872 557.871C385.532 558.408 387.021 559.165 388.34 560.142C390 561.46 391.44 563.169 392.661 565.269C393.882 567.319 394.858 569.663 395.591 572.3C396.177 574.399 396.592 576.694 396.836 579.185C397.129 581.626 397.275 584.214 397.275 586.948Z" fill="white"/>
<path d="M489.194 620.273C489.194 622.178 488.804 623.936 488.022 625.547C487.241 627.109 486.118 628.452 484.653 629.575C483.188 630.698 481.382 631.577 479.233 632.212C477.134 632.847 474.717 633.164 471.982 633.164C468.906 633.164 466.074 632.822 463.486 632.139C460.947 631.455 458.774 630.381 456.968 628.916C455.112 627.451 453.672 625.571 452.646 623.276C451.621 620.981 451.06 618.223 450.962 615H430.747C430.747 620.518 431.797 625.327 433.896 629.429C436.045 633.53 438.95 637.095 442.612 640.122C446.47 643.198 450.986 645.542 456.162 647.153C461.387 648.716 466.66 649.497 471.982 649.497C477.402 649.497 482.407 648.862 486.997 647.593C491.587 646.274 495.542 644.346 498.862 641.807C502.183 639.316 504.771 636.265 506.626 632.651C508.53 628.989 509.482 624.814 509.482 620.127C509.482 614.707 508.237 609.922 505.747 605.771C503.257 601.621 499.912 597.983 495.713 594.858C492.93 592.954 489.878 591.27 486.558 589.805C483.237 588.34 479.746 587.095 476.084 586.069C472.666 585.142 469.59 584.141 466.855 583.066C464.17 581.992 461.875 580.796 459.971 579.478C458.066 578.208 456.602 576.768 455.576 575.156C454.6 573.545 454.111 571.738 454.111 569.736C454.111 567.832 454.478 566.074 455.21 564.463C455.991 562.803 457.114 561.362 458.579 560.142C460.044 558.97 461.826 558.066 463.926 557.432C466.074 556.748 468.516 556.406 471.25 556.406C474.229 556.406 476.816 556.821 479.014 557.651C481.26 558.433 483.14 559.531 484.653 560.947C486.118 562.412 487.217 564.146 487.949 566.147C488.73 568.149 489.17 570.347 489.268 572.739H509.336C509.336 567.954 508.408 563.56 506.553 559.556C504.697 555.552 502.109 552.085 498.789 549.155C495.469 546.274 491.489 544.028 486.851 542.417C482.261 540.806 477.183 540 471.616 540C466.245 540 461.265 540.708 456.675 542.124C452.085 543.491 448.105 545.469 444.736 548.057C441.367 550.645 438.73 553.77 436.826 557.432C434.922 561.094 433.97 565.171 433.97 569.663C433.97 573.569 434.678 577.183 436.094 580.503C437.559 583.823 439.707 586.851 442.539 589.585C445.371 592.319 449.009 594.834 453.452 597.129C457.944 599.424 463.145 601.377 469.053 602.988C472.861 604.014 476.035 605.137 478.574 606.357C481.162 607.529 483.262 608.823 484.873 610.239C486.436 611.704 487.534 613.267 488.169 614.927C488.853 616.587 489.194 618.369 489.194 620.273Z" fill="white"/>
</svg>
