<svg width="1920" height="1080" viewBox="0 0 1920 1080" fill="none" xmlns="http://www.w3.org/2000/svg">
<g clip-path="url(#clip0_5_6)">
<rect width="1920" height="1080" fill="black"/>
<path d="M0 537L353 537C364.046 537 373 528.046 373 517L373 400.5C373 389.454 381.954 380.5 393 380.5H450M1920 537L788.5 537C777.454 537 768.5 528.046 768.5 517V388C768.5 376.954 759.546 368 748.5 368H694M450 380.5V355.5C450 344.454 458.954 335.5 470 335.5H519.5M450 380.5L450 497.5M519.5 335.5L519.5 114C519.5 102.954 528.454 94 539.5 94H562L584.5 94C595.546 94 604.5 102.954 604.5 114V313M519.5 335.5V537M604.5 313L674 313C685.046 313 694 321.954 694 333V368M604.5 313L604.5 627M694 368V465.5" stroke="white" stroke-width="13"/>
<path d="M565 660L494.447 834.851L565 904M565 660L635.869 834.851L565 904M565 660L440 785L565 910L690 785L565 660ZM565 660L565.158 763.787M565 904L565.158 848.64M565.158 848.64C588.589 848.64 607.584 829.645 607.584 806.213C607.584 782.782 588.589 763.787 565.158 763.787M565.158 848.64C541.726 848.64 522.731 829.645 522.731 806.213C522.731 782.782 541.726 763.787 565.158 763.787" stroke="white" stroke-width="24"/>
<path d="M445 950.441H571.585V1009H445V950.441Z" fill="white"/>
<path d="M452.094 1008.2H460.764L465.632 982.326L466.449 986.462L470.677 1008.2H479.347L486.24 967.512H477.179L474.337 991.501L473.839 995.449L473.164 991.576L469.007 967.512H462.398L458.241 991.689L457.566 995.561L454.226 967.512H445.201L452.094 1008.2Z" fill="black"/>
<path d="M511.609 1008.95C515.328 1008.95 518.549 1008.18 521.273 1006.65C523.997 1005.12 525.987 1003.42 527.242 1001.54L522.304 995.9C521.167 997.454 519.686 998.62 517.862 999.397C516.038 1000.17 514.155 1000.56 512.213 1000.56C510.839 1000.56 509.572 1000.34 508.411 999.886C507.25 999.434 506.22 998.795 505.32 997.968C504.443 997.166 503.745 996.276 503.223 995.298C502.702 994.296 502.276 992.98 501.944 991.35V991.237H528.024V986.801C528.024 983.818 527.633 981.098 526.852 978.641C526.07 976.16 524.933 974.042 523.441 972.287C521.925 970.532 520.077 969.179 517.898 968.226C515.742 967.248 513.279 966.76 510.507 966.76C507.831 966.76 505.355 967.274 503.081 968.301C500.807 969.329 498.841 970.77 497.183 972.625C495.525 974.48 494.234 976.699 493.31 979.281C492.386 981.837 491.925 984.67 491.925 987.778V989.282C491.925 992.015 492.386 994.584 493.31 996.99C494.258 999.372 495.596 1001.44 497.325 1003.19C499.054 1004.97 501.127 1006.38 503.543 1007.41C505.959 1008.43 508.648 1008.95 511.609 1008.95ZM510.436 975.22C511.692 975.22 512.793 975.433 513.741 975.859C514.712 976.26 515.529 976.811 516.192 977.513C516.856 978.24 517.377 979.093 517.756 980.07C518.135 981.048 518.324 982.088 518.324 983.191V984.018H502.122C502.359 982.69 502.714 981.486 503.188 980.409C503.662 979.331 504.254 978.403 504.964 977.626C505.651 976.849 506.457 976.26 507.381 975.859C508.304 975.433 509.323 975.22 510.436 975.22Z" fill="black"/>
<path d="M571.301 988.267V987.477C571.301 985.021 571.088 982.715 570.661 980.559C570.259 978.403 569.631 976.461 568.778 974.731C568.233 973.653 567.606 972.663 566.895 971.761C566.184 970.833 565.391 970.043 564.514 969.392C563.425 968.539 562.181 967.888 560.784 967.436C559.41 966.985 557.894 966.76 556.236 966.76C555.028 966.76 553.902 966.898 552.86 967.173C551.842 967.424 550.894 967.813 550.018 968.339C549.402 968.69 548.822 969.116 548.277 969.617C547.732 970.094 547.223 970.62 546.749 971.197V950.441H536.871V1008.2H545.754L546.216 1003.87C546.619 1004.42 547.045 1004.94 547.495 1005.41C547.945 1005.86 548.431 1006.28 548.952 1006.65C549.923 1007.41 551.013 1007.97 552.221 1008.35C553.452 1008.75 554.814 1008.95 556.307 1008.95C557.941 1008.95 559.433 1008.72 560.784 1008.27C562.158 1007.84 563.389 1007.22 564.479 1006.39C565.687 1005.51 566.729 1004.41 567.606 1003.08C568.506 1001.75 569.228 1000.27 569.773 998.645C570.27 997.166 570.649 995.561 570.91 993.832C571.171 992.077 571.301 990.222 571.301 988.267ZM561.423 987.477V988.267C561.423 989.32 561.376 990.335 561.281 991.313C561.21 992.29 561.08 993.193 560.89 994.02C560.653 995.148 560.298 996.163 559.824 997.066C559.374 997.943 558.782 998.657 558.048 999.209C557.527 999.61 556.911 999.923 556.2 1000.15C555.49 1000.37 554.696 1000.49 553.82 1000.49C552.801 1000.49 551.889 1000.36 551.084 1000.11C550.302 999.86 549.615 999.497 549.023 999.021C548.525 998.645 548.087 998.206 547.708 997.705C547.353 997.178 547.033 996.602 546.749 995.975V979.769C546.962 979.293 547.199 978.854 547.46 978.453C547.72 978.027 548.004 977.651 548.312 977.325C548.952 976.649 549.722 976.135 550.622 975.784C551.522 975.433 552.564 975.257 553.749 975.257C554.625 975.257 555.407 975.37 556.094 975.596C556.78 975.796 557.396 976.11 557.941 976.536C558.77 977.213 559.386 977.965 559.789 978.792C560.215 979.594 560.559 980.509 560.819 981.537C561.032 982.414 561.186 983.354 561.281 984.357C561.376 985.359 561.423 986.4 561.423 987.477Z" fill="black"/>
<path d="M625.924 977.864V967.236C625.924 963.927 625.624 960.802 625.024 957.861C624.455 954.92 623.618 952.213 622.513 949.739C621.502 947.567 620.286 945.578 618.865 943.773C617.475 941.969 615.849 940.431 613.985 939.161C612.122 937.824 610.022 936.805 607.685 936.103C605.379 935.368 602.9 935 600.247 935C597.625 935 595.193 935.351 592.951 936.053C590.709 936.755 588.687 937.757 586.887 939.061C585.055 940.398 583.429 942.002 582.008 943.874C580.618 945.745 579.433 947.834 578.454 950.14C577.444 952.58 576.67 955.237 576.133 958.112C575.628 960.986 575.375 964.027 575.375 967.236V977.864C575.375 980.872 575.596 983.73 576.038 986.437C576.512 989.144 577.191 991.651 578.075 993.957C579.054 996.464 580.27 998.72 581.723 1000.73C583.176 1002.7 584.818 1004.39 586.65 1005.79C588.514 1007.13 590.582 1008.16 592.856 1008.9C595.13 1009.63 597.61 1010 600.294 1010C602.821 1010 605.174 1009.67 607.353 1009C609.564 1008.36 611.585 1007.46 613.417 1006.29C615.438 1004.95 617.238 1003.28 618.818 1001.28C620.397 999.271 621.723 997.066 622.797 994.659C623.808 992.253 624.582 989.646 625.118 986.838C625.655 983.997 625.924 981.006 625.924 977.864ZM612.422 967.136V977.864C612.422 979.669 612.327 981.407 612.138 983.078C611.98 984.749 611.727 986.287 611.38 987.691C610.938 989.495 610.338 991.116 609.58 992.553C608.853 993.957 607.953 995.127 606.879 996.063C606.026 996.832 605.047 997.416 603.942 997.818C602.837 998.219 601.621 998.419 600.294 998.419C598.904 998.419 597.657 998.202 596.552 997.767C595.478 997.333 594.514 996.715 593.662 995.912C592.746 995.01 591.94 993.84 591.246 992.403C590.582 990.932 590.077 989.311 589.73 987.54C589.414 986.136 589.193 984.616 589.066 982.978C588.94 981.34 588.877 979.636 588.877 977.864V967.136C588.877 965.264 588.94 963.476 589.066 961.771C589.224 960.067 589.461 958.496 589.777 957.059C590.188 955.187 590.756 953.549 591.482 952.146C592.24 950.742 593.156 949.572 594.23 948.636C595.02 948.001 595.904 947.517 596.883 947.182C597.894 946.848 599.015 946.681 600.247 946.681C601.542 946.681 602.71 946.865 603.752 947.233C604.826 947.6 605.79 948.118 606.642 948.787C607.716 949.689 608.648 950.859 609.437 952.296C610.227 953.7 610.859 955.304 611.332 957.109C611.711 958.546 611.98 960.117 612.138 961.822C612.327 963.493 612.422 965.264 612.422 967.136Z" fill="white"/>
<path d="M671.877 989.947C671.877 991.25 671.625 992.453 671.119 993.556C670.614 994.626 669.887 995.545 668.94 996.314C667.992 997.082 666.824 997.684 665.434 998.118C664.076 998.553 662.513 998.77 660.744 998.77C658.754 998.77 656.923 998.536 655.249 998.068C653.606 997.6 652.201 996.865 651.032 995.862C649.832 994.86 648.901 993.573 648.237 992.002C647.574 990.431 647.211 988.543 647.148 986.337H634.072C634.072 990.114 634.751 993.406 636.109 996.213C637.499 999.021 639.378 1001.46 641.747 1003.53C644.242 1005.64 647.163 1007.24 650.511 1008.35C653.891 1009.42 657.302 1009.95 660.744 1009.95C664.25 1009.95 667.487 1009.52 670.456 1008.65C673.425 1007.74 675.983 1006.42 678.131 1004.69C680.278 1002.98 681.952 1000.89 683.152 998.419C684.384 995.912 685 993.055 685 989.846C685 986.136 684.195 982.861 682.584 980.02C680.973 977.179 678.81 974.689 676.094 972.55C674.293 971.247 672.319 970.094 670.172 969.091C668.024 968.088 665.766 967.236 663.397 966.534C661.186 965.899 659.197 965.214 657.428 964.479C655.691 963.743 654.206 962.924 652.975 962.022C651.743 961.153 650.795 960.167 650.132 959.064C649.501 957.961 649.185 956.725 649.185 955.354C649.185 954.051 649.422 952.848 649.895 951.745C650.401 950.608 651.127 949.622 652.075 948.787C653.022 947.985 654.175 947.366 655.533 946.932C656.923 946.464 658.502 946.23 660.27 946.23C662.197 946.23 663.871 946.514 665.292 947.082C666.745 947.617 667.961 948.369 668.94 949.338C669.887 950.341 670.598 951.527 671.072 952.898C671.577 954.268 671.861 955.772 671.925 957.41H684.905C684.905 954.134 684.305 951.126 683.105 948.386C681.905 945.645 680.231 943.272 678.083 941.267C675.936 939.295 673.362 937.757 670.361 936.654C667.392 935.551 664.108 935 660.507 935C657.033 935 653.812 935.485 650.843 936.454C647.874 937.39 645.3 938.743 643.121 940.515C640.942 942.286 639.236 944.425 638.004 946.932C636.773 949.439 636.157 952.229 636.157 955.304C636.157 957.978 636.615 960.451 637.531 962.724C638.478 964.997 639.868 967.069 641.7 968.941C643.531 970.812 645.884 972.533 648.758 974.104C651.664 975.675 655.028 977.012 658.849 978.115C661.313 978.817 663.366 979.586 665.008 980.421C666.682 981.223 668.04 982.109 669.082 983.078C670.093 984.081 670.803 985.15 671.214 986.287C671.656 987.423 671.877 988.643 671.877 989.947Z" fill="white"/>
</g>
<defs>
<clipPath id="clip0_5_6">
<rect width="1920" height="1080" fill="white"/>
</clipPath>
</defs>
</svg>
