<svg width="1920" height="1080" viewBox="0 0 1920 1080" fill="none" xmlns="http://www.w3.org/2000/svg">
<rect width="1920" height="1080" fill="black"/>
<path d="M1750 700L1679.45 874.851L1750 944M1750 700L1820.87 874.851L1750 944M1750 700L1625 825L1750 950L1875 825L1750 700ZM1750 700L1750.16 803.787M1750 944L1750.16 888.64M1750.16 888.64C1773.59 888.64 1792.58 869.645 1792.58 846.213C1792.58 822.782 1773.59 803.787 1750.16 803.787M1750.16 888.64C1726.73 888.64 1707.73 869.645 1707.73 846.213C1707.73 822.782 1726.73 803.787 1750.16 803.787" stroke="white" stroke-width="24"/>
<path d="M1630 990.441H1756.59V1049H1630V990.441Z" fill="white"/>
<path d="M1637.09 1048.2H1645.76L1650.63 1022.33L1651.45 1026.46L1655.68 1048.2H1664.35L1671.24 1007.51H1662.18L1659.34 1031.5L1658.84 1035.45L1658.16 1031.58L1654.01 1007.51H1647.4L1643.24 1031.69L1642.57 1035.56L1639.23 1007.51H1630.2L1637.09 1048.2Z" fill="black"/>
<path d="M1696.61 1048.95C1700.33 1048.95 1703.55 1048.18 1706.27 1046.65C1709 1045.12 1710.99 1043.42 1712.24 1041.54L1707.3 1035.9C1706.17 1037.45 1704.69 1038.62 1702.86 1039.4C1701.04 1040.17 1699.16 1040.56 1697.21 1040.56C1695.84 1040.56 1694.57 1040.34 1693.41 1039.89C1692.25 1039.43 1691.22 1038.8 1690.32 1037.97C1689.44 1037.17 1688.74 1036.28 1688.22 1035.3C1687.7 1034.3 1687.28 1032.98 1686.94 1031.35V1031.24H1713.02V1026.8C1713.02 1023.82 1712.63 1021.1 1711.85 1018.64C1711.07 1016.16 1709.93 1014.04 1708.44 1012.29C1706.92 1010.53 1705.08 1009.18 1702.9 1008.23C1700.74 1007.25 1698.28 1006.76 1695.51 1006.76C1692.83 1006.76 1690.36 1007.27 1688.08 1008.3C1685.81 1009.33 1683.84 1010.77 1682.18 1012.63C1680.53 1014.48 1679.23 1016.7 1678.31 1019.28C1677.39 1021.84 1676.92 1024.67 1676.92 1027.78V1029.28C1676.92 1032.01 1677.39 1034.58 1678.31 1036.99C1679.26 1039.37 1680.6 1041.44 1682.33 1043.19C1684.05 1044.97 1686.13 1046.38 1688.54 1047.41C1690.96 1048.43 1693.65 1048.95 1696.61 1048.95ZM1695.44 1015.22C1696.69 1015.22 1697.79 1015.43 1698.74 1015.86C1699.71 1016.26 1700.53 1016.81 1701.19 1017.51C1701.86 1018.24 1702.38 1019.09 1702.76 1020.07C1703.13 1021.05 1703.32 1022.09 1703.32 1023.19V1024.02H1687.12C1687.36 1022.69 1687.71 1021.49 1688.19 1020.41C1688.66 1019.33 1689.25 1018.4 1689.96 1017.63C1690.65 1016.85 1691.46 1016.26 1692.38 1015.86C1693.3 1015.43 1694.32 1015.22 1695.44 1015.22Z" fill="black"/>
<path d="M1756.3 1028.27V1027.48C1756.3 1025.02 1756.09 1022.71 1755.66 1020.56C1755.26 1018.4 1754.63 1016.46 1753.78 1014.73C1753.23 1013.65 1752.61 1012.66 1751.89 1011.76C1751.18 1010.83 1750.39 1010.04 1749.51 1009.39C1748.42 1008.54 1747.18 1007.89 1745.78 1007.44C1744.41 1006.99 1742.89 1006.76 1741.24 1006.76C1740.03 1006.76 1738.9 1006.9 1737.86 1007.17C1736.84 1007.42 1735.89 1007.81 1735.02 1008.34C1734.4 1008.69 1733.82 1009.12 1733.28 1009.62C1732.73 1010.09 1732.22 1010.62 1731.75 1011.2V990.441H1721.87V1048.2H1730.75L1731.22 1043.87C1731.62 1044.42 1732.05 1044.94 1732.5 1045.41C1732.95 1045.86 1733.43 1046.28 1733.95 1046.65C1734.92 1047.41 1736.01 1047.97 1737.22 1048.35C1738.45 1048.75 1739.81 1048.95 1741.31 1048.95C1742.94 1048.95 1744.43 1048.72 1745.78 1048.27C1747.16 1047.84 1748.39 1047.22 1749.48 1046.39C1750.69 1045.51 1751.73 1044.41 1752.61 1043.08C1753.51 1041.75 1754.23 1040.27 1754.77 1038.64C1755.27 1037.17 1755.65 1035.56 1755.91 1033.83C1756.17 1032.08 1756.3 1030.22 1756.3 1028.27ZM1746.42 1027.48V1028.27C1746.42 1029.32 1746.38 1030.34 1746.28 1031.31C1746.21 1032.29 1746.08 1033.19 1745.89 1034.02C1745.65 1035.15 1745.3 1036.16 1744.82 1037.07C1744.37 1037.94 1743.78 1038.66 1743.05 1039.21C1742.53 1039.61 1741.91 1039.92 1741.2 1040.15C1740.49 1040.37 1739.7 1040.49 1738.82 1040.49C1737.8 1040.49 1736.89 1040.36 1736.08 1040.11C1735.3 1039.86 1734.62 1039.5 1734.02 1039.02C1733.53 1038.64 1733.09 1038.21 1732.71 1037.7C1732.35 1037.18 1732.03 1036.6 1731.75 1035.98V1019.77C1731.96 1019.29 1732.2 1018.85 1732.46 1018.45C1732.72 1018.03 1733 1017.65 1733.31 1017.33C1733.95 1016.65 1734.72 1016.13 1735.62 1015.78C1736.52 1015.43 1737.56 1015.26 1738.75 1015.26C1739.62 1015.26 1740.41 1015.37 1741.09 1015.6C1741.78 1015.8 1742.4 1016.11 1742.94 1016.54C1743.77 1017.21 1744.39 1017.96 1744.79 1018.79C1745.22 1019.59 1745.56 1020.51 1745.82 1021.54C1746.03 1022.41 1746.19 1023.35 1746.28 1024.36C1746.38 1025.36 1746.42 1026.4 1746.42 1027.48Z" fill="black"/>
<path d="M1810.92 1017.86V1007.24C1810.92 1003.93 1810.62 1000.8 1810.02 997.861C1809.46 994.92 1808.62 992.213 1807.51 989.739C1806.5 987.567 1805.29 985.578 1803.86 983.773C1802.48 981.969 1800.85 980.431 1798.99 979.161C1797.12 977.824 1795.02 976.805 1792.68 976.103C1790.38 975.368 1787.9 975 1785.25 975C1782.63 975 1780.19 975.351 1777.95 976.053C1775.71 976.755 1773.69 977.757 1771.89 979.061C1770.06 980.398 1768.43 982.002 1767.01 983.874C1765.62 985.745 1764.43 987.834 1763.45 990.14C1762.44 992.58 1761.67 995.237 1761.13 998.112C1760.63 1000.99 1760.38 1004.03 1760.38 1007.24V1017.86C1760.38 1020.87 1760.6 1023.73 1761.04 1026.44C1761.51 1029.14 1762.19 1031.65 1763.08 1033.96C1764.05 1036.46 1765.27 1038.72 1766.72 1040.73C1768.18 1042.7 1769.82 1044.39 1771.65 1045.79C1773.51 1047.13 1775.58 1048.16 1777.86 1048.9C1780.13 1049.63 1782.61 1050 1785.29 1050C1787.82 1050 1790.17 1049.67 1792.35 1049C1794.56 1048.36 1796.59 1047.46 1798.42 1046.29C1800.44 1044.95 1802.24 1043.28 1803.82 1041.28C1805.4 1039.27 1806.72 1037.07 1807.8 1034.66C1808.81 1032.25 1809.58 1029.65 1810.12 1026.84C1810.66 1024 1810.92 1021.01 1810.92 1017.86ZM1797.42 1007.14V1017.86C1797.42 1019.67 1797.33 1021.41 1797.14 1023.08C1796.98 1024.75 1796.73 1026.29 1796.38 1027.69C1795.94 1029.5 1795.34 1031.12 1794.58 1032.55C1793.85 1033.96 1792.95 1035.13 1791.88 1036.06C1791.03 1036.83 1790.05 1037.42 1788.94 1037.82C1787.84 1038.22 1786.62 1038.42 1785.29 1038.42C1783.9 1038.42 1782.66 1038.2 1781.55 1037.77C1780.48 1037.33 1779.51 1036.71 1778.66 1035.91C1777.75 1035.01 1776.94 1033.84 1776.25 1032.4C1775.58 1030.93 1775.08 1029.31 1774.73 1027.54C1774.41 1026.14 1774.19 1024.62 1774.07 1022.98C1773.94 1021.34 1773.88 1019.64 1773.88 1017.86V1007.14C1773.88 1005.26 1773.94 1003.48 1774.07 1001.77C1774.22 1000.07 1774.46 998.496 1774.78 997.059C1775.19 995.187 1775.76 993.549 1776.48 992.146C1777.24 990.742 1778.16 989.572 1779.23 988.636C1780.02 988.001 1780.9 987.517 1781.88 987.182C1782.89 986.848 1784.02 986.681 1785.25 986.681C1786.54 986.681 1787.71 986.865 1788.75 987.233C1789.83 987.6 1790.79 988.118 1791.64 988.787C1792.72 989.689 1793.65 990.859 1794.44 992.296C1795.23 993.7 1795.86 995.304 1796.33 997.109C1796.71 998.546 1796.98 1000.12 1797.14 1001.82C1797.33 1003.49 1797.42 1005.26 1797.42 1007.14Z" fill="white"/>
<path d="M1856.88 1029.95C1856.88 1031.25 1856.62 1032.45 1856.12 1033.56C1855.61 1034.63 1854.89 1035.54 1853.94 1036.31C1852.99 1037.08 1851.82 1037.68 1850.43 1038.12C1849.08 1038.55 1847.51 1038.77 1845.74 1038.77C1843.75 1038.77 1841.92 1038.54 1840.25 1038.07C1838.61 1037.6 1837.2 1036.86 1836.03 1035.86C1834.83 1034.86 1833.9 1033.57 1833.24 1032C1832.57 1030.43 1832.21 1028.54 1832.15 1026.34H1819.07C1819.07 1030.11 1819.75 1033.41 1821.11 1036.21C1822.5 1039.02 1824.38 1041.46 1826.75 1043.53C1829.24 1045.64 1832.16 1047.24 1835.51 1048.35C1838.89 1049.42 1842.3 1049.95 1845.74 1049.95C1849.25 1049.95 1852.49 1049.52 1855.46 1048.65C1858.42 1047.74 1860.98 1046.42 1863.13 1044.69C1865.28 1042.98 1866.95 1040.89 1868.15 1038.42C1869.38 1035.91 1870 1033.05 1870 1029.85C1870 1026.14 1869.19 1022.86 1867.58 1020.02C1865.97 1017.18 1863.81 1014.69 1861.09 1012.55C1859.29 1011.25 1857.32 1010.09 1855.17 1009.09C1853.02 1008.09 1850.77 1007.24 1848.4 1006.53C1846.19 1005.9 1844.2 1005.21 1842.43 1004.48C1840.69 1003.74 1839.21 1002.92 1837.97 1002.02C1836.74 1001.15 1835.8 1000.17 1835.13 999.064C1834.5 997.961 1834.18 996.725 1834.18 995.354C1834.18 994.051 1834.42 992.848 1834.9 991.745C1835.4 990.608 1836.13 989.622 1837.07 988.787C1838.02 987.985 1839.17 987.366 1840.53 986.932C1841.92 986.464 1843.5 986.23 1845.27 986.23C1847.2 986.23 1848.87 986.514 1850.29 987.082C1851.74 987.617 1852.96 988.369 1853.94 989.338C1854.89 990.341 1855.6 991.527 1856.07 992.898C1856.58 994.268 1856.86 995.772 1856.92 997.41H1869.91C1869.91 994.134 1869.31 991.126 1868.11 988.386C1866.9 985.645 1865.23 983.272 1863.08 981.267C1860.94 979.295 1858.36 977.757 1855.36 976.654C1852.39 975.551 1849.11 975 1845.51 975C1842.03 975 1838.81 975.485 1835.84 976.454C1832.87 977.39 1830.3 978.743 1828.12 980.515C1825.94 982.286 1824.24 984.425 1823 986.932C1821.77 989.439 1821.16 992.229 1821.16 995.304C1821.16 997.978 1821.61 1000.45 1822.53 1002.72C1823.48 1005 1824.87 1007.07 1826.7 1008.94C1828.53 1010.81 1830.88 1012.53 1833.76 1014.1C1836.66 1015.68 1840.03 1017.01 1843.85 1018.11C1846.31 1018.82 1848.37 1019.59 1850.01 1020.42C1851.68 1021.22 1853.04 1022.11 1854.08 1023.08C1855.09 1024.08 1855.8 1025.15 1856.21 1026.29C1856.66 1027.42 1856.88 1028.64 1856.88 1029.95Z" fill="white"/>
</svg>
