<svg width="1920" height="1080" viewBox="0 0 1920 1080" fill="none" xmlns="http://www.w3.org/2000/svg">
<g clip-path="url(#clip0_5_3)">
<rect width="1920" height="1080" fill="black"/>
<line y1="538.5" x2="1920" y2="538.5" stroke="white" stroke-width="3"/>
<line y1="482.5" x2="1920" y2="482.5" stroke="white" stroke-width="3"/>
<line y1="594.5" x2="1920" y2="594.5" stroke="white" stroke-width="3"/>
<line y1="566.5" x2="1920" y2="566.5" stroke="white" stroke-width="3"/>
<line y1="510.5" x2="1920" y2="510.5" stroke="white" stroke-width="3"/>
<rect x="398" y="484" width="340" height="112" fill="white"/>
<path d="M577.094 576H588.531L593.922 548.906L594.953 543.75L596.031 548.906L601.609 576H613.047L622.141 525.281H610.188L606.438 555.188L605.781 560.109L604.891 555.281L599.406 525.281H590.688L585.203 555.422L584.312 560.25L583.703 555.422L579.906 525.281H568L577.094 576Z" fill="black"/>
<path d="M655.609 576.938C660.516 576.938 664.766 575.984 668.359 574.078C671.953 572.172 674.578 570.047 676.234 567.703L669.719 560.672C668.219 562.609 666.266 564.062 663.859 565.031C661.453 566 658.969 566.484 656.406 566.484C654.594 566.484 652.922 566.203 651.391 565.641C649.859 565.078 648.5 564.281 647.312 563.25C646.156 562.25 645.234 561.141 644.547 559.922C643.859 558.672 643.297 557.031 642.859 555V554.859H677.266V549.328C677.266 545.609 676.75 542.219 675.719 539.156C674.688 536.062 673.188 533.422 671.219 531.234C669.219 529.047 666.781 527.359 663.906 526.172C661.062 524.953 657.812 524.344 654.156 524.344C650.625 524.344 647.359 524.984 644.359 526.266C641.359 527.547 638.766 529.344 636.578 531.656C634.391 533.969 632.688 536.734 631.469 539.953C630.25 543.141 629.641 546.672 629.641 550.547V552.422C629.641 555.828 630.25 559.031 631.469 562.031C632.719 565 634.484 567.578 636.766 569.766C639.047 571.984 641.781 573.734 644.969 575.016C648.156 576.297 651.703 576.938 655.609 576.938ZM654.062 534.891C655.719 534.891 657.172 535.156 658.422 535.688C659.703 536.188 660.781 536.875 661.656 537.75C662.531 538.656 663.219 539.719 663.719 540.938C664.219 542.156 664.469 543.453 664.469 544.828V545.859H643.094C643.406 544.203 643.875 542.703 644.5 541.359C645.125 540.016 645.906 538.859 646.844 537.891C647.75 536.922 648.812 536.188 650.031 535.688C651.25 535.156 652.594 534.891 654.062 534.891Z" fill="black"/>
<path d="M734.359 551.156V550.172C734.359 547.109 734.078 544.234 733.516 541.547C732.984 538.859 732.156 536.438 731.031 534.281C730.312 532.938 729.484 531.703 728.547 530.578C727.609 529.422 726.562 528.438 725.406 527.625C723.969 526.562 722.328 525.75 720.484 525.188C718.672 524.625 716.672 524.344 714.484 524.344C712.891 524.344 711.406 524.516 710.031 524.859C708.688 525.172 707.438 525.656 706.281 526.312C705.469 526.75 704.703 527.281 703.984 527.906C703.266 528.5 702.594 529.156 701.969 529.875V504H688.938V576H700.656L701.266 570.609C701.797 571.297 702.359 571.938 702.953 572.531C703.547 573.094 704.188 573.609 704.875 574.078C706.156 575.016 707.594 575.719 709.188 576.188C710.812 576.688 712.609 576.938 714.578 576.938C716.734 576.938 718.703 576.656 720.484 576.094C722.297 575.562 723.922 574.781 725.359 573.75C726.953 572.656 728.328 571.281 729.484 569.625C730.672 567.969 731.625 566.125 732.344 564.094C733 562.25 733.5 560.25 733.844 558.094C734.188 555.906 734.359 553.594 734.359 551.156ZM721.328 550.172V551.156C721.328 552.469 721.266 553.734 721.141 554.953C721.047 556.172 720.875 557.297 720.625 558.328C720.312 559.734 719.844 561 719.219 562.125C718.625 563.219 717.844 564.109 716.875 564.797C716.188 565.297 715.375 565.688 714.438 565.969C713.5 566.25 712.453 566.391 711.297 566.391C709.953 566.391 708.75 566.234 707.688 565.922C706.656 565.609 705.75 565.156 704.969 564.562C704.312 564.094 703.734 563.547 703.234 562.922C702.766 562.266 702.344 561.547 701.969 560.766V540.562C702.25 539.969 702.562 539.422 702.906 538.922C703.25 538.391 703.625 537.922 704.031 537.516C704.875 536.672 705.891 536.031 707.078 535.594C708.266 535.156 709.641 534.938 711.203 534.938C712.359 534.938 713.391 535.078 714.297 535.359C715.203 535.609 716.016 536 716.734 536.531C717.828 537.375 718.641 538.312 719.172 539.344C719.734 540.344 720.188 541.484 720.531 542.766C720.812 543.859 721.016 545.031 721.141 546.281C721.266 547.531 721.328 548.828 721.328 550.172Z" fill="black"/>
<path d="M1264.15 547.622V532.095C1264.15 527.261 1263.69 522.695 1262.76 518.398C1261.88 514.102 1260.58 510.146 1258.88 506.533C1257.31 503.359 1255.43 500.454 1253.24 497.817C1251.09 495.181 1248.57 492.935 1245.69 491.079C1242.81 489.126 1239.56 487.637 1235.95 486.611C1232.39 485.537 1228.55 485 1224.45 485C1220.4 485 1216.64 485.513 1213.17 486.538C1209.71 487.563 1206.58 489.028 1203.8 490.933C1200.97 492.886 1198.45 495.229 1196.25 497.964C1194.11 500.698 1192.27 503.75 1190.76 507.119C1189.2 510.684 1188 514.565 1187.17 518.765C1186.39 522.964 1186 527.407 1186 532.095V547.622C1186 552.017 1186.34 556.191 1187.03 560.146C1187.76 564.102 1188.81 567.764 1190.17 571.133C1191.69 574.795 1193.57 578.091 1195.81 581.021C1198.06 583.901 1200.6 586.367 1203.43 588.418C1206.31 590.371 1209.51 591.885 1213.03 592.959C1216.54 594.033 1220.38 594.57 1224.53 594.57C1228.43 594.57 1232.07 594.082 1235.44 593.105C1238.86 592.178 1241.98 590.859 1244.81 589.15C1247.94 587.197 1250.72 584.756 1253.16 581.826C1255.6 578.896 1257.66 575.674 1259.32 572.158C1260.88 568.643 1262.07 564.834 1262.9 560.732C1263.73 556.582 1264.15 552.212 1264.15 547.622ZM1243.28 531.948V547.622C1243.28 550.259 1243.13 552.798 1242.84 555.239C1242.59 557.681 1242.2 559.927 1241.66 561.978C1240.98 564.614 1240.05 566.982 1238.88 569.082C1237.76 571.133 1236.37 572.842 1234.71 574.209C1233.39 575.332 1231.87 576.187 1230.17 576.772C1228.46 577.358 1226.58 577.651 1224.53 577.651C1222.38 577.651 1220.45 577.334 1218.74 576.699C1217.08 576.064 1215.59 575.161 1214.27 573.989C1212.86 572.671 1211.61 570.962 1210.54 568.862C1209.51 566.714 1208.73 564.346 1208.19 561.758C1207.7 559.707 1207.36 557.485 1207.17 555.093C1206.97 552.7 1206.87 550.21 1206.87 547.622V531.948C1206.87 529.214 1206.97 526.602 1207.17 524.111C1207.41 521.621 1207.78 519.326 1208.27 517.227C1208.9 514.492 1209.78 512.1 1210.9 510.049C1212.07 507.998 1213.49 506.289 1215.15 504.922C1216.37 503.994 1217.74 503.286 1219.25 502.798C1220.81 502.31 1222.55 502.065 1224.45 502.065C1226.45 502.065 1228.26 502.334 1229.87 502.871C1231.53 503.408 1233.02 504.165 1234.34 505.142C1236 506.46 1237.44 508.169 1238.66 510.269C1239.88 512.319 1240.86 514.663 1241.59 517.3C1242.18 519.399 1242.59 521.694 1242.84 524.185C1243.13 526.626 1243.28 529.214 1243.28 531.948Z" fill="white"/>
<path d="M1335.19 565.273C1335.19 567.178 1334.8 568.936 1334.02 570.547C1333.24 572.109 1332.12 573.452 1330.65 574.575C1329.19 575.698 1327.38 576.577 1325.23 577.212C1323.13 577.847 1320.72 578.164 1317.98 578.164C1314.91 578.164 1312.07 577.822 1309.49 577.139C1306.95 576.455 1304.77 575.381 1302.97 573.916C1301.11 572.451 1299.67 570.571 1298.65 568.276C1297.62 565.981 1297.06 563.223 1296.96 560H1276.75C1276.75 565.518 1277.8 570.327 1279.9 574.429C1282.04 578.53 1284.95 582.095 1288.61 585.122C1292.47 588.198 1296.99 590.542 1302.16 592.153C1307.39 593.716 1312.66 594.497 1317.98 594.497C1323.4 594.497 1328.41 593.862 1333 592.593C1337.59 591.274 1341.54 589.346 1344.86 586.807C1348.18 584.316 1350.77 581.265 1352.63 577.651C1354.53 573.989 1355.48 569.814 1355.48 565.127C1355.48 559.707 1354.24 554.922 1351.75 550.771C1349.26 546.621 1345.91 542.983 1341.71 539.858C1338.93 537.954 1335.88 536.27 1332.56 534.805C1329.24 533.34 1325.75 532.095 1322.08 531.069C1318.67 530.142 1315.59 529.141 1312.86 528.066C1310.17 526.992 1307.88 525.796 1305.97 524.478C1304.07 523.208 1302.6 521.768 1301.58 520.156C1300.6 518.545 1300.11 516.738 1300.11 514.736C1300.11 512.832 1300.48 511.074 1301.21 509.463C1301.99 507.803 1303.11 506.362 1304.58 505.142C1306.04 503.97 1307.83 503.066 1309.93 502.432C1312.07 501.748 1314.52 501.406 1317.25 501.406C1320.23 501.406 1322.82 501.821 1325.01 502.651C1327.26 503.433 1329.14 504.531 1330.65 505.947C1332.12 507.412 1333.22 509.146 1333.95 511.147C1334.73 513.149 1335.17 515.347 1335.27 517.739H1355.34C1355.34 512.954 1354.41 508.56 1352.55 504.556C1350.7 500.552 1348.11 497.085 1344.79 494.155C1341.47 491.274 1337.49 489.028 1332.85 487.417C1328.26 485.806 1323.18 485 1317.62 485C1312.25 485 1307.26 485.708 1302.67 487.124C1298.08 488.491 1294.11 490.469 1290.74 493.057C1287.37 495.645 1284.73 498.77 1282.83 502.432C1280.92 506.094 1279.97 510.171 1279.97 514.663C1279.97 518.569 1280.68 522.183 1282.09 525.503C1283.56 528.823 1285.71 531.851 1288.54 534.585C1291.37 537.319 1295.01 539.834 1299.45 542.129C1303.94 544.424 1309.14 546.377 1315.05 547.988C1318.86 549.014 1322.04 550.137 1324.57 551.357C1327.16 552.529 1329.26 553.823 1330.87 555.239C1332.44 556.704 1333.53 558.267 1334.17 559.927C1334.85 561.587 1335.19 563.369 1335.19 565.273Z" fill="white"/>
<path d="M960 390L875.337 599.821L960 682.8M960 390L1045.04 599.821L960 682.8M960 390L810 540L960 690L1110 540L960 390ZM960 390L960.189 514.544M960 682.8L960.189 616.368M960.189 616.368C988.307 616.368 1011.1 593.574 1011.1 565.456C1011.1 537.338 988.307 514.544 960.189 514.544M960.189 616.368C932.072 616.368 909.278 593.574 909.278 565.456C909.278 537.338 932.072 514.544 960.189 514.544" stroke="white" stroke-width="20"/>
<path d="M976 1080V874C976 867.373 970.627 862 964 862H335C328.373 862 323 867.373 323 874V1080" stroke="white" stroke-width="12"/>
<path d="M1773 1080V702C1773 695.373 1767.63 690 1761 690H1533C1526.37 690 1521 695.373 1521 702V1080" stroke="white" stroke-width="12"/>
<path d="M628 0V254C628 260.627 622.627 266 616 266H0" stroke="white" stroke-width="12"/>
<path d="M418 1016V786C418 776.059 409.941 768 400 768H154C144.059 768 136 776.059 136 786V1016C136 1025.94 144.059 1034 154 1034H400C409.941 1034 418 1025.94 418 1016Z" stroke="white" stroke-width="12"/>
<path d="M1558 0V191C1558 197.627 1552.63 203 1546 203H1283C1276.37 203 1271 197.627 1271 191V101.5V0" stroke="white" stroke-width="12"/>
<path d="M1601 1092V850C1601 840.059 1592.94 832 1583 832H1313C1303.06 832 1295 840.059 1295 850V1092C1295 1101.94 1303.06 1110 1313 1110H1583C1592.94 1110 1601 1101.94 1601 1092Z" stroke="white" stroke-width="12"/>
<path d="M1920 905H1687C1680.37 905 1675 910.373 1675 917V1080" stroke="white" stroke-width="12"/>
<path d="M852 378V136C852 126.059 843.941 118 834 118H289C279.059 118 271 126.059 271 136V378C271 387.941 279.059 396 289 396H834C843.941 396 852 387.941 852 378Z" stroke="white" stroke-width="12"/>
<path d="M1698 0V148C1698 154.627 1692.63 160 1686 160H1504C1497.37 160 1492 154.627 1492 148V0" stroke="white" stroke-width="12"/>
<path d="M1920 266H1638C1631.37 266 1626 260.627 1626 254V0" stroke="white" stroke-width="12"/>
<path d="M513 812V702C513 692.059 504.941 684 495 684H386C376.059 684 368 692.059 368 702V812C368 821.941 376.059 830 386 830H495C504.941 830 513 821.941 513 812Z" stroke="white" stroke-width="12"/>
</g>
<defs>
<clipPath id="clip0_5_3">
<rect width="1920" height="1080" fill="white"/>
</clipPath>
</defs>
</svg>
